HIERARCHY
ROOT Hips
{
    OFFSET 0.000000 0.000000 0.000000
    CHANNELS 6 Xposition Yposition Zposition Zrotation Xrotation Yrotation
    JOINT Spine
    {
        OFFSET -0.000000 14.517291 0.000000
        CHANNELS 3 Zrotation Xrotation Yrotation
        JOINT Spine1
        {
            OFFSET -0.000000 37.558300 0.000000
            CHANNELS 3 Zrotation Xrotation Yrotation
            JOINT Neck
            {
                OFFSET -0.000000 37.404057 3.400369
                CHANNELS 3 Zrotation Xrotation Yrotation
                JOINT Head
                {
                    OFFSET -0.000000 24.785618 -3.540803
                    CHANNELS 3 Zrotation Xrotation Yrotation
                    End Site
                    {
                        OFFSET -0.000000 35.408028 0.000000
                    }
                }
            }
            JOINT LeftShoulder
            {
                OFFSET 6.992933 33.973492 -0.192664
                CHANNELS 3 Zrotation Xrotation Yrotation
                JOINT LeftArm
                {
                    OFFSET 21.527611 0.000000 0.000000
                    CHANNELS 3 Zrotation Xrotation Yrotation
                    JOINT LeftForeArm
                    {
                        OFFSET 56.353916 0.000000 0.000000
                        CHANNELS 3 Zrotation Xrotation Yrotation
                        JOINT LeftHand
                        {
                            OFFSET 47.774071 0.000000 0.000000
                            CHANNELS 3 Zrotation Xrotation Yrotation
                            End Site
                            {
                                OFFSET 26.556021 0.000000 0.000000
                            }
                        }
                    }
                }
            }
            JOINT RightShoulder
            {
                OFFSET -7.065357 33.973492 -0.192664
                CHANNELS 3 Zrotation Xrotation Yrotation
                JOINT RightArm
                {
                    OFFSET -21.527611 0.000000 0.000000
                    CHANNELS 3 Zrotation Xrotation Yrotation
                    JOINT RightForeArm
                    {
                        OFFSET -56.353916 0.000000 0.000000
                        CHANNELS 3 Zrotation Xrotation Yrotation
                        JOINT RightHand
                        {
                            OFFSET -47.774071 0.000000 0.000000
                            CHANNELS 3 Zrotation Xrotation Yrotation
                            End Site
                            {
                                OFFSET -26.556021 0.000000 0.000000
                            }
                        }
                    }
                }
            }
        }
    }
    JOINT LeftUpLeg
    {
        OFFSET 17.704014 0.000000 0.000000
        CHANNELS 3 Zrotation Xrotation Yrotation
        JOINT LeftLeg
        {
            OFFSET -0.000000 -81.181816 0.000000
            CHANNELS 3 Zrotation Xrotation Yrotation
            JOINT LeftFoot
            {
                OFFSET -0.000000 -62.821102 0.000000
                CHANNELS 3 Zrotation Xrotation Yrotation
                JOINT LeftToeBase
                {
                    OFFSET -0.000000 -11.507608 26.556021
                    CHANNELS 3 Zrotation Xrotation Yrotation
                    End Site
                    {
                        OFFSET -0.000000 0.000000 7.081605
                    }
                }
            }
        }
    }
    JOINT RightUpLeg
    {
        OFFSET -17.704014 0.000000 0.000000
        CHANNELS 3 Zrotation Xrotation Yrotation
        JOINT RightLeg
        {
            OFFSET -0.000000 -81.181816 0.000000
            CHANNELS 3 Zrotation Xrotation Yrotation
            JOINT RightFoot
            {
                OFFSET -0.000000 -62.821102 0.000000
                CHANNELS 3 Zrotation Xrotation Yrotation
                JOINT RightToeBase
                {
                    OFFSET -0.000000 -11.507608 26.556021
                    CHANNELS 3 Zrotation Xrotation Yrotation
                    End Site
                    {
                        OFFSET -0.000000 0.000000 7.081605
                    }
                }
            }
        }
    }
}
MOTION
Frames:    9
Frame Time:    0.008333
-35.420792    169.590897    -25.757990    -13.750412    -21.885130    49.734421    2.782927    4.881658    -3.679694    6.102244    5.466672    -1.479909    23.822962    -1.118085    -0.667701    -2.325726    -6.990462    -4.995475    11.145947    7.109936    -21.933428    -34.539284    18.395767    -53.949539    -1.203600    -31.323046    -108.341446    -7.692029    -32.085781    -11.426890    11.235942    1.597893    -7.236527    24.348045    -2.200872    34.903194    -25.548635    -10.740081    56.275078    -3.921871    2.036041    31.945290    30.998360    -10.936527    14.143630    -4.861191    28.810438    -12.824972    3.128701    -9.153890    42.094326    0.000000    0.000000    0.000000    -89.381630    -43.730736    -52.801167    6.516713    18.964306    -5.962720    12.673882    20.667343    -19.726517    0.000000    0.000000    0.000000    
-35.429783    169.607849    -25.778591    -13.780499    -21.888590    49.705982    2.789011    4.881523    -3.671829    6.115458    5.476752    -1.478359    23.793653    -1.127850    -0.664527    -2.285298    -6.983451    -4.981127    11.130983    7.125619    -21.919571    -34.573757    18.407297    -53.937321    -1.236415    -31.250683    -108.364861    -7.639012    -32.058426    -11.411155    11.221733    1.599247    -7.227299    24.350866    -2.168901    34.924870    -25.590675    -10.756864    56.229153    -3.894127    2.036030    31.980658    31.019739    -10.949937    14.134321    -4.872290    28.804382    -12.823528    3.113896    -9.133404    42.114376    0.000000    0.000000    0.000000    -89.362045    -43.744995    -52.808266    6.514933    18.963127    -5.974007    12.673651    20.645893    -19.755720    0.000000    0.000000    0.000000    
-35.437511    169.617844    -25.803310    -13.813139    -21.882765    49.674576    2.810492    4.877745    -3.659965    6.091529    5.476539    -1.472973    23.804554    -1.122653    -0.655192    -2.279726    -6.996356    -4.971241    11.139892    7.144681    -21.914059    -34.593086    18.434027    -53.929642    -1.265683    -31.199394    -108.397141    -7.597786    -32.048679    -11.371953    11.229866    1.612335    -7.221158    24.342800    -2.150227    34.940350    -25.608908    -10.766704    56.207115    -3.869532    2.036348    31.998756    31.033512    -10.970642    14.113428    -4.885354    28.804607    -12.845693    3.125517    -9.112772    42.159935    0.000000    0.000000    0.000000    -89.356323    -43.754406    -52.831261    6.526056    18.945648    -6.031478    12.646597    20.642118    -19.743027    0.000000    0.000000    0.000000    
-35.448502    169.622696    -25.826281    -13.840449    -21.866470    49.643002    2.810801    4.871986    -3.645818    6.079540    5.483886    -1.468113    23.817156    -1.139646    -0.642547    -2.281023    -6.991455    -4.963974    11.146768    7.158511    -21.890736    -34.597275    18.475275    -53.937428    -0.934366    -31.162720    -108.292679    -7.488035    -31.643578    -11.110358    11.236555    1.621540    -7.215116    24.332266    -2.130160    34.962574    -25.634657    -10.768418    56.177746    -3.875767    2.038069    32.018673    31.037256    -10.986539    14.098249    -4.904387    28.796658    -12.842023    3.141532    -9.102056    42.197189    0.000000    0.000000    0.000000    -89.377777    -43.768593    -52.875965    6.534410    18.941000    -6.057847    12.609324    20.629631    -19.732161    0.000000    0.000000    0.000000    
-35.459553    169.625931    -25.850412    -13.863704    -21.851135    49.612381    2.808805    4.868125    -3.628367    6.070595    5.492566    -1.462437    23.850386    -1.131537    -0.635493    -2.314286    -7.017130    -4.967618    11.147109    7.166894    -21.885767    -34.617352    18.495098    -53.921902    -0.981192    -31.076138    -108.339676    -7.417738    -31.620811    -11.088203    11.245787    1.614978    -7.208649    24.316534    -2.118468    34.971539    -25.626738    -10.754670    56.166019    -3.859722    2.048666    32.017715    31.038786    -10.998502    14.071486    -4.927947    28.787556    -12.831120    3.147094    -9.108179    42.239033    0.000000    0.000000    0.000000    -89.397621    -43.780991    -52.913841    6.543240    18.935585    -6.090341    12.618144    20.605232    -19.748552    0.000000    0.000000    0.000000    
-35.475426    169.627380    -25.874086    -13.885728    -21.837202    49.584366    2.796514    4.868014    -3.608625    6.081313    5.503236    -1.457139    23.843588    -1.126332    -0.627644    -2.301664    -7.042861    -4.955184    11.136592    7.180019    -21.892754    -34.613235    18.534634    -53.908104    -1.322518    -31.042532    -108.495506    -7.458781    -31.979162    -11.288953    11.241033    1.624039    -7.206652    24.303480    -2.083432    34.997158    -25.657671    -10.774236    56.122021    -3.854026    2.033427    32.063351    31.033096    -11.009016    14.082501    -4.918858    28.763794    -12.803480    3.144920    -9.096793    42.225590    0.000000    0.000000    0.000000    -89.422813    -43.794956    -52.961170    6.557091    18.934614    -6.132383    12.579708    20.599892    -19.741211    0.000000    0.000000    0.000000    
-35.491890    169.625092    -25.898764    -13.905431    -21.819517    49.560036    2.782279    4.866573    -3.590282    6.090921    5.519333    -1.452559    23.857410    -1.124277    -0.620159    -2.322011    -7.074236    -4.953963    11.131277    7.196124    -21.896875    -34.669739    18.568716    -53.842304    -2.572043    -31.243738    -109.477737    -7.683026    -33.710358    -10.618506    11.240026    1.619011    -7.204522    24.298405    -2.101996    35.010315    -25.639874    -10.725696    56.125809    -3.850804    2.073128    32.106880    31.023701    -11.026945    14.105210    -4.902105    28.755526    -12.798409    3.147957    -9.096692    42.217548    0.000000    0.000000    0.000000    -89.451324    -43.802929    -53.030613    6.563558    18.928997    -6.162827    12.538497    20.609970    -19.723438    0.000000    0.000000    0.000000    
-35.515533    169.623322    -25.922293    -13.930096    -21.803614    49.535809    2.766682    4.869641    -3.583009    6.106048    5.529861    -1.451606    23.848181    -1.099444    -0.619434    -2.303655    -7.132257    -4.943739    11.119419    7.213508    -21.890690    -34.647644    18.522619    -53.871620    -1.142068    -30.861053    -108.471268    -7.484421    -31.594917    -11.083681    11.226502    1.626216    -7.191524    24.304794    -2.102589    35.033581    -25.635595    -10.697953    56.124424    -3.837388    2.102404    32.107883    31.021671    -11.053596    14.136512    -4.876895    28.752712    -12.814509    3.134885    -9.099256    42.215073    0.000000    0.000000    0.000000    -89.480492    -43.820320    -53.103966    6.558874    18.933392    -6.192016    12.501559    20.625418    -19.705837    0.000000    0.000000    0.000000    
-35.534077    169.631027    -25.941610    -13.945876    -21.810095    49.524567    2.765195    4.887609    -3.576718    6.115963    5.550611    -1.450988    23.845331    -1.098854    -0.615359    -2.292643    -7.162522    -4.937232    11.126196    7.227807    -21.893444    -34.659470    18.516340    -53.865055    -1.163834    -30.787079    -108.486618    -7.498905    -31.544937    -11.112190    11.218564    1.635645    -7.195793    24.303724    -2.090626    35.068859    -25.636902    -10.691916    56.118801    -3.852520    2.103679    32.094158    31.028461    -11.068741    14.151053    -4.846614    28.753635    -12.837270    3.131910    -9.071495    42.194016    0.000000    0.000000    0.000000    -89.465111    -43.817387    -53.134449    6.563126    18.919792    -6.200954    12.485949    20.620279    -19.715162    0.000000    0.000000    0.000000    
